<svg width="36" height="36" viewBox="0 0 36 36" fill="none" xmlns="http://www.w3.org/2000/svg">
<path d="M11.1915 22.0635H12.7485C13.437 22.0635 13.9995 22.206 14.436 22.491C14.8815 22.7775 15.2093 23.2035 15.4193 23.769C15.6353 24.3345 15.7433 25.0403 15.7433 25.8863C15.7433 26.5238 15.681 27.0787 15.5565 27.5512C15.4365 28.0237 15.2558 28.4197 15.0143 28.7392C14.773 29.0529 14.4532 29.2974 14.0873 29.448C13.6598 29.6095 13.2054 29.6882 12.7485 29.6797H11.1915V22.0635Z" fill="#0DAF25"/>
<path d="M2.25 4.5C2.25 3.30653 2.72411 2.16193 3.56802 1.31802C4.41193 0.474106 5.55653 0 6.75 0L20.25 0C21.4435 0 22.5881 0.474106 23.432 1.31802C24.2759 2.16193 24.75 3.30653 24.75 4.5V22.5C25.9435 22.5 27.0881 22.9741 27.932 23.818C28.7759 24.6619 29.25 25.8065 29.25 27V28.125C29.25 28.4234 29.3685 28.7095 29.5795 28.9205C29.7905 29.1315 30.0766 29.25 30.375 29.25C30.6734 29.25 30.9595 29.1315 31.1705 28.9205C31.3815 28.7095 31.5 28.4234 31.5 28.125V18H30.375C30.0766 18 29.7905 17.8815 29.5795 17.6705C29.3685 17.4595 29.25 17.1734 29.25 16.875V9.84375C29.25 9.54538 29.3685 9.25923 29.5795 9.04825C29.7905 8.83728 30.0766 8.71875 30.375 8.71875H33.7388C33.714 7.64775 33.6195 6.70725 33.2865 5.96925C33.1082 5.54014 32.7977 5.17912 32.4 4.93875C31.986 4.69125 31.356 4.5 30.375 4.5C30.0766 4.5 29.7905 4.38147 29.5795 4.1705C29.3685 3.95952 29.25 3.67337 29.25 3.375C29.25 3.07663 29.3685 2.79048 29.5795 2.5795C29.7905 2.36853 30.0766 2.25 30.375 2.25C31.644 2.247 32.703 2.499 33.552 3.006C34.4137 3.519 34.9785 4.24575 35.3385 5.04675C36.0023 6.5205 36 8.343 36 9.729V16.875C36 17.1734 35.8815 17.4595 35.6705 17.6705C35.4595 17.8815 35.1734 18 34.875 18H33.75V28.125C33.75 29.0201 33.3944 29.8786 32.7615 30.5115C32.1286 31.1444 31.2701 31.5 30.375 31.5C29.4799 31.5 28.6214 31.1444 27.9885 30.5115C27.3556 29.8786 27 29.0201 27 28.125V27C27 26.4033 26.7629 25.831 26.341 25.409C25.919 24.9871 25.3467 24.75 24.75 24.75V33.75H25.875C26.1734 33.75 26.4595 33.8685 26.6705 34.0795C26.8815 34.2905 27 34.5766 27 34.875C27 35.1734 26.8815 35.4595 26.6705 35.6705C26.4595 35.8815 26.1734 36 25.875 36H1.125C0.826631 36 0.540483 35.8815 0.329505 35.6705C0.118526 35.4595 0 35.1734 0 34.875C0 34.5766 0.118526 34.2905 0.329505 34.0795C0.540483 33.8685 0.826631 33.75 1.125 33.75H2.25V4.5ZM6.75 5.625V16.875C6.75 17.1734 6.86853 17.4595 7.0795 17.6705C7.29048 17.8815 7.57663 18 7.875 18H19.125C19.4234 18 19.7095 17.8815 19.9205 17.6705C20.1315 17.4595 20.25 17.1734 20.25 16.875V5.625C20.25 5.32663 20.1315 5.04048 19.9205 4.8295C19.7095 4.61853 19.4234 4.5 19.125 4.5H7.875C7.57663 4.5 7.29048 4.61853 7.0795 4.8295C6.86853 5.04048 6.75 5.32663 6.75 5.625ZM9 20.25V31.5H13.041C14.157 31.5 15.0795 31.2773 15.8085 30.8318C16.5435 30.3878 17.0925 29.7428 17.4555 28.8968C17.8185 28.0508 18 27.0338 18 25.8458C18 24.6638 17.8185 23.6557 17.4555 22.8217C17.1311 22.0257 16.5592 21.3552 15.8243 20.9093C15.0953 20.4698 14.1675 20.25 13.041 20.25H9Z" fill="#0DAF25"/>
</svg>
